# xmcd CD database file
#
# Track frame offsets:
#	150
#	20478
#	37460
#	54454
#	73011
#	81516
#	92983
#	111477
#	121607
#	131558
#	147297
#	161512
#	170183
#
# Disc length: 2720 seconds
#
# Revision: 0
# Processed by: cddbd v1.5.2PL0 Copyright (c) Steve Scherf et al.
# Submitted via: CDex 1.51
#
DISCID=c30a9e0d
DTITLE=Back at the Ranch - Meanwhile
DYEAR=2004
DGENRE=Country
TTITLE0=Guitar Rag
TTITLE1=Ain't Misbehavin'
TTITLE2=Boss of the Plains
TTITLE3=Old Mexico
TTITLE4=Texas in My Soul
TTITLE5=Scene 1
TTITLE6=Slap Your Granny Grits, Scenes 2 and 3
TTITLE7=Tom's Feed, Scene 4
TTITLE8=Cannonball Rag
TTITLE9=Tryin' Not to Love You
TTITLE10=Little Red Wagon
TTITLE11=Clover Honey
TTITLE12=Tumbling Tumbleweeds
EXTD=YEAR: 2004
EXTT0=
EXTT1=
EXTT2=
EXTT3=
EXTT4=
EXTT5=
EXTT6=
EXTT7=
EXTT8=
EXTT9=
EXTT10=
EXTT11=
EXTT12=
PLAYORDER=
